# xmcd
#
# Track frame offsets:
#	150
#	14695
#	29900
#	44349
#	59938
#	73330
#	91416
#	108263
#	123299
#	138532
#	151848
#	165751
#	180322
#	195781
#	210181
#	225467
#	239688
#	257174
#	271289
#
# Disc length: 3803 seconds
#
# Revision: 1
# Processed by: cddbd v1.5.2PL0 Copyright (c) Steve Scherf et al.
# Submitted via: audiograbber 1.82.02
#
DISCID=080ed913
DTITLE=Various Artist  - Country Radio - April 2018
DYEAR=2018
DGENRE=Country
TTITLE0=Jimmie Allen - Best Shot
TTITLE1=Noe Palma - She's Wearing My Hat
TTITLE2=Jason Aldean - You Make It Easy
TTITLE3=Tenille Arts - Moment Of Weakness
TTITLE4=Cort Carpenter - Again
TTITLE5=Uncle Si and The Sicotics - As Seen On TV
TTITLE6=Jacob Bryant - Pour Whiskey On My Grave
TTITLE7=Big Smo - Country Outlaw
TTITLE8=Cash Campbell - Cannonball
TTITLE9=Denny Strickland - California Dreamin'
TTITLE10=Krystal Keith and Lance Carpenter - Anyone Else
TTITLE11=Eric Paslay - Young Forever
TTITLE12=Russell Dickerson -  Blue Tacoma
TTITLE13=Honey County -  Love Someone
TTITLE14=Lucas Hoge - Power Of Garth
TTITLE15=Cale Dodds - Take You Back
TTITLE16=Parker McCollum - Hell Of A Year
TTITLE17=Colt Ford (Ft. Waterloo Revival) - Dynamite
TTITLE18=Kelsea Ballerini - I Hate Love Songs
EXTD=
EXTT0=
EXTT1=
EXTT2=
EXTT3=
EXTT4=
EXTT5=
EXTT6=
EXTT7=
EXTT8=
EXTT9=
EXTT10=
EXTT11=
EXTT12=
EXTT13=
EXTT14=
EXTT15=
EXTT16=
EXTT17=
EXTT18=
PLAYORDER=
